<mxfile host="app.diagrams.net" modified="2023-05-22T13:22:31.922Z" agent="Mozilla/5.0 (Windows NT 10.0; Win64; x64; rv:109.0) Gecko/20100101 Firefox/113.0" version="21.3.2" etag="OTyI-x1oma3fTK9on-gY" type="gitlab">
  <diagram name="Page-1" id="gDrgruxCSNrPCZ8K3_lu">
    <mxGraphModel>
      <root>
        <mxCell id="0" />
        <mxCell id="1" parent="0" />
      </root>
    </mxGraphModel>
  </diagram>
</mxfile>
